# Blender 3.4.1
# www.blender.org
mtllib rp_boats_raft.mtl
o Cube
v -8.437500 1.000000 -9.375000
v -8.437500 -1.000000 -9.375000
v 8.437500 1.000000 -9.375000
v 8.437500 -1.000000 -9.375000
v -8.437500 1.000000 9.375000
v -8.437500 -1.000000 9.375000
v 8.437500 1.000000 9.375000
v 8.437500 -1.000000 9.375000
v -5.906249 -1.000000 9.375000
v 5.906250 -1.000000 9.375000
v -8.437500 1.000000 9.375000
v -8.437500 1.000000 -9.375000
v 5.906249 -1.000000 -9.375000
v -5.906250 -1.000000 -9.375000
v -5.906250 -3.000000 -9.375000
v 5.906249 -3.000000 -9.375000
v 5.906250 -3.000000 9.375000
v -5.906249 -3.000000 9.375000
v -5.906249 1.000000 9.375000
v -5.906250 1.000000 -9.375000
v 5.906250 1.000000 9.375000
v 5.906249 1.000000 -9.375000
vn -0.0000 1.0000 -0.0000
vn -0.0000 -1.0000 -0.0000
vn -0.0000 -0.0000 1.0000
vn -0.0000 -0.0000 -1.0000
vn 1.0000 -0.0000 -0.0000
vn -1.0000 -0.0000 -0.0000
vt 0.000000 0.000000
vt 1.000000 0.250000
vt 1.000000 1.000000
vt 1.000000 0.125000
vt 1.000000 0.250000
vt 1.000000 0.000000
vt 0.000000 0.250000
vt 1.000000 0.000000
vt 1.000000 0.125000
vt 0.000000 0.125000
vt 1.000000 0.000000
vt 0.000000 0.250000
vt 0.000000 1.000000
vt 0.000000 0.125000
vt 1.000000 0.125000
vt 0.000000 0.000000
vt 0.000000 0.250000
vt 0.000000 0.000000
vt 0.000000 0.125000
vt 0.000000 0.875000
vt 0.000000 0.125000
vt 0.875000 0.125000
vt 0.000000 0.125000
vt 0.125000 0.125000
vt 1.000000 0.000000
vt 0.000000 1.000000
vt 1.000000 0.250000
vt 0.000000 0.000000
vt 1.000000 1.000000
vt 1.000000 0.250000
vt 1.000000 0.125000
vt 0.125000 0.125000
vt 1.000000 0.875000
vt 1.000000 0.125000
vt 0.875000 0.125000
vt 0.875000 0.000000
vt 1.000000 0.875000
vt 1.000000 0.000000
vt 0.125000 0.000000
vt 1.000000 0.125000
vt 1.000000 0.000000
vt 0.125000 0.000000
vt 0.000000 0.125000
vt 0.000000 0.000000
vt 0.875000 0.000000
vt 0.000000 0.875000
vt 0.000000 0.000000
vt 0.000000 0.875000
vt 0.875000 0.250000
vt 1.000000 0.875000
vt 0.875000 0.250000
vt 0.000000 0.125000
vt 0.125000 0.250000
vt 1.000000 0.125000
vt 0.125000 0.250000
s 0
usemtl Material
f 1/1/1 5/11/1 11/25/1 12/28/1
f 10/23/2 13/31/2 4/8/2 8/18/2
f 17/42/3 10/24/3 9/22/3 18/45/3
f 15/36/4 14/35/4 13/32/4 16/39/4
f 9/20/2 6/13/2 2/3/2 14/33/2
f 17/43/2 18/46/2 15/37/2 16/40/2
f 13/31/5 10/23/5 17/44/5 16/41/5
f 14/34/6 15/38/6 18/47/6 9/21/6
f 8/19/5 4/9/5 3/5/5 7/17/5
f 2/4/6 6/14/6 5/12/6 1/2/6
f 11/26/1 19/48/1 20/50/1 12/29/1
f 20/50/1 19/48/1 21/52/1 22/54/1
f 3/6/1 22/54/1 21/52/1 7/16/1
f 10/24/3 8/19/3 7/17/3 21/53/3
f 9/22/3 19/49/3 11/27/3 6/15/3
f 10/24/3 21/53/3 19/49/3 9/22/3
f 3/7/4 4/10/4 13/32/4 22/55/4
f 13/32/4 14/35/4 20/51/4 22/55/4
f 14/35/4 2/4/4 12/30/4 20/51/4
l 2 4
l 8 6
