# Blender 3.3.1
# www.blender.org
mtllib rp_boats_log_float.mtl
o Cube
v -5.000000 5.000000 -10.000000
v 5.000000 5.000000 10.000000
v 5.000000 5.000000 -10.000000
v -5.000000 5.000000 10.000000
v -5.000000 5.000000 10.000000
v 5.000000 5.000000 -10.000000
v 5.000000 5.000000 10.000000
v -5.000000 5.000000 -10.000000
v 5.000000 5.000000 -6.000000
v 5.000000 5.000000 6.000000
v -4.000001 5.000000 -10.000000
v 4.000000 5.000000 6.000000
v -4.000000 5.000000 6.000000
v 4.000000 5.000000 -10.000000
v 4.000001 5.000000 10.000000
v -4.000000 5.000000 10.000000
v -5.000000 5.000000 6.000000
v 4.000000 5.000000 -6.000000
v -4.000000 5.000000 -6.000000
v -5.000000 5.000000 -6.000000
v -4.000000 5.000000 -6.000000
v 4.000000 5.000000 -6.000000
v -4.000000 5.000000 6.000000
v 4.000000 5.000000 6.000000
v 4.000000 0.000000 6.000000
v -4.000000 0.000000 6.000000
v 4.000000 0.000000 -6.000000
v -4.000000 0.000000 -6.000000
v 4.000000 5.000000 -10.000000
v -4.000001 5.000000 -10.000000
v 5.000000 5.000000 6.000000
v 5.000000 5.000000 -6.000000
v 4.000001 5.000000 10.000000
v -4.000000 5.000000 10.000000
v -5.000000 5.000000 6.000000
v -5.000000 5.000000 -6.000000
v 5.000000 -5.000000 10.000000
v -5.000000 -5.000000 10.000000
v -5.000000 -5.000000 10.000000
v 5.000000 -5.000000 -10.000000
v 5.000000 -5.000000 10.000000
v -5.000000 -5.000000 -10.000000
v 4.000000 -5.000000 -10.000000
v -4.000001 -5.000000 -10.000000
v 5.000000 -5.000000 6.000000
v 5.000000 -5.000000 -6.000000
v 4.000001 -5.000000 10.000000
v -4.000000 -5.000000 10.000000
v -5.000000 -5.000000 6.000000
v -5.000000 -5.000000 -6.000000
v -5.000000 -5.000000 0.000000
v 5.000000 -5.000000 0.000000
v -4.000000 5.000000 0.000000
v -5.000000 5.000000 0.000000
v 5.000000 5.000000 0.000000
v 4.000000 5.000000 0.000000
v -4.000000 5.000000 0.000000
v -4.000000 0.000000 0.000000
v 4.000000 5.000000 0.000000
v 4.000000 0.000000 0.000000
v 4.000001 -5.000000 6.000000
v -4.000000 -5.000000 6.000000
v 4.000000 -5.000000 -6.000000
v -4.000001 -5.000000 -6.000000
v 4.000001 -5.000000 0.000000
v -4.000000 -5.000000 0.000000
vn -0.0000 1.0000 -0.0000
vn 1.0000 -0.0000 -0.0000
vn -0.0000 -0.0000 -1.0000
vn -1.0000 -0.0000 -0.0000
vn -0.0000 -0.0000 1.0000
vn -0.0000 -1.0000 -0.0000
vt 0.000000 0.000000
vt 0.000000 1.000000
vt 0.900000 1.000000
vt 1.000000 1.000000
vt 0.000000 1.000000
vt 1.000000 0.000000
vt 0.000000 1.000000
vt 0.100000 0.000000
vt 1.000000 0.000000
vt 0.000000 1.000000
vt 1.000000 1.000000
vt 0.100000 0.000000
vt 1.000000 1.000000
vt 0.000000 0.000000
vt 0.900000 0.000000
vt 1.000000 1.000000
vt 0.400000 1.000000
vt 0.000000 1.000000
vt 1.000000 1.000000
vt 0.600000 1.000000
vt 0.000000 1.000000
vt 1.000000 1.000000
vt 0.000000 0.000000
vt 0.000000 1.000000
vt 0.000000 0.100000
vt 0.200000 0.300000
vt 1.000000 0.000000
vt 0.200000 0.700000
vt 0.000000 0.000000
vt 0.000000 1.000000
vt 0.000000 0.900000
vt 0.000000 0.000000
vt 1.000000 1.000000
vt 1.000000 0.900000
vt 1.000000 0.000000
vt 1.000000 0.000000
vt 1.000000 1.000000
vt 1.000000 0.100000
vt 0.600000 0.000000
vt 1.000000 0.000000
vt 0.000000 0.000000
vt 0.800000 0.300000
vt 0.000000 0.000000
vt 0.800000 0.700000
vt 1.000000 0.000000
vt 0.400000 0.000000
vt 0.000000 0.000000
vt 1.000000 0.000000
vt 0.400000 0.100000
vt 0.800000 0.700000
vt 1.000000 0.100000
vt 1.000000 0.000000
vt 0.400000 0.900000
vt 0.800000 0.300000
vt 1.000000 1.000000
vt 0.600000 0.100000
vt 0.200000 0.700000
vt 1.000000 1.000000
vt 0.000000 0.000000
vt 0.000000 1.000000
vt 0.600000 0.900000
vt 0.200000 0.300000
vt 1.000000 0.000000
vt 1.000000 1.000000
vt 0.000000 0.000000
vt 0.000000 1.000000
vt 1.000000 0.000000
vt 0.000000 1.000000
vt 0.000000 0.000000
vt 1.000000 1.000000
vt 0.000000 1.000000
vt 0.000000 0.000000
vt 0.900000 0.000000
vt 0.000000 0.000000
vt 0.000000 1.000000
vt 1.000000 0.000000
vt 0.100000 0.000000
vt 0.600000 1.000000
vt 0.000000 1.000000
vt 1.000000 1.000000
vt 0.400000 1.000000
vt 0.400000 1.000000
vt 0.000000 1.000000
vt 1.000000 1.000000
vt 0.600000 1.000000
vt 1.000000 1.000000
vt 1.000000 0.000000
vt 0.900000 0.000000
vt 0.100000 0.000000
vt 1.000000 0.000000
vt 1.000000 1.000000
vt 0.900000 0.000000
vt 0.000000 0.000000
vt 1.000000 0.000000
vt 0.000000 0.000000
vt 0.400000 1.000000
vt 0.000000 0.100000
vt 0.000000 0.000000
vt 1.000000 0.000000
vt 0.600000 1.000000
vt 0.400000 0.100000
vt 0.000000 0.000000
vt 1.000000 1.000000
vt 1.000000 0.000000
vt 0.000000 0.000000
vt 0.100000 1.000000
vt 1.000000 0.000000
vt 0.000000 0.000000
vt 1.000000 0.000000
vt 0.100000 1.000000
vt 1.000000 1.000000
vt 1.000000 1.000000
vt 1.000000 0.000000
vt 0.900000 1.000000
vt 1.000000 0.000000
vt 0.000000 1.000000
vt 0.000000 1.000000
vt 0.900000 1.000000
vt 1.000000 1.000000
vt 0.100000 1.000000
vt 0.400000 0.000000
vt 1.000000 0.400000
vt 0.600000 0.000000
vt 1.000000 0.600000
vt 1.000000 0.000000
vt 0.100000 1.000000
vt 0.900000 0.000000
vt 0.900000 1.000000
vt 0.000000 1.000000
vt 0.100000 0.000000
vt 0.400000 0.000000
vt 0.000000 0.400000
vt 0.600000 0.000000
vt 0.000000 0.600000
vt 1.000000 0.000000
vt 0.000000 1.000000
vt 0.000000 0.000000
vt 0.000000 0.000000
vt 1.000000 0.000000
vt 1.000000 1.000000
vt 0.500000 0.700000
vt 0.600000 0.000000
vt 1.000000 0.000000
vt 0.500000 0.000000
vt 0.000000 1.000000
vt 1.000000 1.000000
vt 0.600000 0.100000
vt 0.400000 0.000000
vt 0.600000 0.900000
vt 0.500000 1.000000
vt 1.000000 1.000000
vt 0.000000 1.000000
vt 1.000000 0.900000
vt 0.000000 0.900000
vt 0.500000 0.300000
vt 1.000000 0.000000
vt 1.000000 1.000000
vt 0.000000 0.000000
vt 1.000000 1.000000
vt 0.000000 1.000000
vt 1.000000 1.000000
vt 1.000000 0.000000
vt 1.000000 0.000000
vt 0.000000 1.000000
vt 0.000000 0.000000
vt 0.900000 0.400000
vt 0.100000 0.400000
vt 0.900000 0.600000
vt 0.100000 0.600000
vt 0.900000 0.000000
vt 0.900000 1.000000
vt 0.100000 1.000000
vt 0.100000 0.000000
s 0
g Cube_Material
usemtl Material
f 11/23/1 14/30/1 29/71/1 30/74/1
f 15/33/1 16/36/1 34/90/1 33/86/1
f 1/1/1 11/24/1 30/75/1 8/14/1
f 16/37/1 5/9/1 4/6/1 34/91/1
f 22/54/1 21/50/1 19/44/1 18/42/1
f 24/62/1 56/155/1 22/54/1 18/42/1 12/26/1
f 23/57/1 24/62/1 12/26/1 13/28/1
f 21/50/1 53/141/1 23/57/1 13/28/1 19/44/1
f 10/21/1 7/13/1 2/4/1 31/79/1
f 7/13/1 15/35/1 33/87/1 2/4/1
f 17/40/1 20/47/1 36/98/1 54/144/1 35/94/1
f 20/48/1 1/1/1 8/14/1 36/99/1
f 5/9/1 17/41/1 35/95/1 4/6/1
f 14/32/1 3/5/1 6/10/1 29/72/1
f 9/18/1 10/22/1 31/80/1 55/150/1 32/83/1
f 3/5/1 9/19/1 32/84/1 6/10/1
f 6/11/2 32/85/2 46/123/2 40/109/2
f 5/9/1 4/6/1 38/104/1 39/107/1
f 31/81/2 2/2/2 37/102/2 45/121/2
f 51/137/4 54/145/4 36/100/4 50/133/4
f 36/100/4 8/16/4 42/115/4 50/133/4
f 4/7/4 35/96/4 49/131/4 38/105/4
f 7/13/1 2/4/1 37/103/1 41/112/1
f 51/135/4 49/131/4 35/96/4 54/146/4
f 52/139/2 55/151/2 31/81/2 45/121/2
f 32/85/2 55/152/2 52/138/2 46/123/2
g Cube_Material.001
usemtl Material.001
f 8/15/3 30/76/3 44/119/3 42/114/3
f 29/72/3 6/12/3 40/110/3 43/117/3
f 2/3/5 33/88/5 47/125/5 37/103/5
f 30/77/3 29/73/3 43/118/3 44/120/3
f 33/89/5 34/92/5 48/128/5 47/126/5
f 34/93/5 4/8/5 38/106/5 48/129/5
g Cube_Material.004
usemtl Material.004
f 58/158/2 57/156/2 23/58/2 26/66/2
f 25/65/4 24/63/4 59/161/4 60/164/4
f 28/69/2 21/52/2 57/157/2 58/160/2
f 60/165/4 59/162/4 22/55/4 27/68/4
g Cube_Material.003
usemtl Material.003
f 13/29/3 12/27/3 25/64/3 26/66/3
f 18/43/5 19/45/5 28/70/5 27/68/5
g Cube_Material.002
usemtl Material.002
f 25/65/1 60/163/1 58/159/1 26/66/1
f 27/67/1 28/70/1 58/160/1 60/165/1
g Cube_Material.005
usemtl Material.005
f 24/61/1 15/34/1 7/13/1 10/20/1
f 14/31/1 22/53/1 9/17/1 3/5/1
f 11/25/1 21/49/1 22/53/1 14/31/1
f 1/1/1 20/46/1 21/49/1 11/25/1
f 56/153/1 55/151/1 32/82/1 22/53/1
f 17/39/1 5/9/1 16/38/1 23/56/1
f 56/154/1 24/60/1 31/78/1 55/149/1
f 23/56/1 16/38/1 15/34/1 24/61/1
f 23/59/1 53/142/1 54/147/1 35/97/1
f 54/148/1 53/143/1 21/51/1 36/101/1
f 47/127/6 48/130/6 62/167/6 61/166/6
f 44/120/6 43/118/6 63/168/6 64/169/6
f 61/166/6 62/167/6 66/172/6 65/171/6
f 64/169/6 63/168/6 65/170/6 66/173/6
f 48/130/6 39/108/6 49/132/6 62/167/6
f 51/136/6 66/172/6 62/167/6 49/132/6
f 51/137/6 50/134/6 64/169/6 66/173/6
f 42/116/6 44/120/6 64/169/6 50/134/6
f 46/124/6 63/168/6 43/118/6 40/111/6
f 52/139/6 65/170/6 63/168/6 46/124/6
f 45/122/6 61/166/6 65/171/6 52/140/6
f 61/166/6 45/122/6 41/113/6 47/127/6
l 25 27
l 53 57
l 26 28
l 56 59
