# Blender 3.3.1
# www.blender.org
mtllib rp_fire_firesite.mtl
o Cube
v 0.312500 -0.500000 0.312500
v 0.312500 -0.500000 0.375000
v 0.375000 -0.500000 0.312500
v -0.375000 -0.500000 0.312500
v -0.312500 -0.500000 0.312500
v -0.312500 -0.500000 0.375000
v -0.375000 -0.500000 -0.312500
v -0.312500 -0.500000 -0.375000
v -0.312500 -0.500000 -0.312500
v 0.312500 -0.500000 -0.375000
v 0.312500 -0.500000 -0.312500
v 0.375000 -0.500000 -0.312500
v 0.312500 -0.500000 0.312500
v -0.312500 -0.500000 0.312500
v 0.250000 -0.437500 0.250000
v -0.250000 -0.437500 0.250000
v -0.250000 0.500000 0.250000
v -0.250000 -0.437500 0.250000
v -0.250000 0.500000 -0.250000
v -0.250000 -0.437500 -0.250000
v 0.250000 -0.437500 -0.250000
v 0.250000 0.500000 0.250000
v -0.250000 -0.437500 0.250000
v 0.250000 -0.437500 -0.250000
v 0.250000 0.500000 -0.250000
v 0.250000 -0.437500 -0.250000
v 0.250000 -0.375000 0.250000
v 0.312500 -0.375000 0.312500
v 0.312500 -0.375000 0.375000
v 0.375000 -0.375000 0.312500
v -0.375000 -0.375000 0.312500
v -0.312500 -0.375000 0.312500
v -0.312500 -0.375000 0.375000
v -0.250000 -0.375000 0.250000
v -0.375000 -0.375000 -0.312500
v -0.312500 -0.375000 -0.375000
v -0.312500 -0.375000 -0.312500
v -0.250000 -0.375000 -0.250000
v 0.250000 -0.375000 -0.250000
v 0.312500 -0.375000 -0.375000
v 0.312500 -0.375000 -0.312500
v 0.375000 -0.375000 -0.312500
v -0.312500 -0.375000 0.250000
v -0.312500 -0.375000 -0.250000
v 0.312500 -0.375000 0.312500
v -0.312500 -0.375000 0.312500
v 0.250000 -0.375000 0.312500
v -0.250000 -0.375000 0.312500
v 0.312500 -0.375000 0.250000
v 0.312500 -0.375000 -0.250000
v -0.250000 -0.375000 -0.312500
v 0.250000 -0.375000 -0.312500
vn -0.0000 -1.0000 -0.0000
vn -0.0000 1.0000 -0.0000
vn 1.0000 -0.0000 -0.0000
vn -0.0000 -0.0000 -1.0000
vn -0.0000 -0.0000 1.0000
vn -1.0000 -0.0000 -0.0000
vn -0.7071 -0.0000 -0.7071
vn 0.7071 -0.0000 -0.7071
vt 0.812500 0.187500
vt 0.812500 0.125000
vt 0.125000 0.000000
vt 0.812500 0.000000
vt 0.875000 0.000000
vt 0.875000 0.187500
vt 0.187500 0.000000
vt 0.125000 0.187500
vt 0.187500 0.000000
vt 0.125000 0.000000
vt 0.187500 0.187500
vt 0.187500 0.125000
vt 0.125000 0.000000
vt 0.187500 0.000000
vt 0.125000 0.812500
vt 0.125000 0.000000
vt 0.812500 0.000000
vt 0.187500 0.875000
vt 0.187500 0.000000
vt 0.875000 0.000000
vt 0.812500 0.000000
vt 0.187500 0.812500
vt 0.187500 0.000000
vt 0.812500 0.875000
vt 0.812500 0.000000
vt 0.875000 0.000000
vt 0.812500 0.812500
vt 0.812500 0.000000
vt 0.875000 0.812500
vt 0.875000 0.000000
vt 0.812500 0.000000
vt 0.812500 0.000000
vt 0.812500 0.187500
vt 0.187500 0.000000
vt 0.187500 0.187500
vt 0.187500 0.000000
vt 0.250000 0.125000
vt 0.250000 0.062500
vt 0.250000 0.750000
vt 0.000000 0.000000
vt 0.000000 0.000000
vt 1.000000 1.000000
vt 0.250000 0.125000
vt 0.250000 0.062500
vt 0.250000 0.250000
vt 1.000000 1.000000
vt 0.250000 0.062500
vt 0.250000 0.125000
vt 0.750000 0.250000
vt 1.000000 0.000000
vt 0.250000 0.062500
vt 0.250000 0.125000
vt 0.750000 0.750000
vt 0.000000 1.000000
vt 0.000000 0.000000
vt 1.000000 0.000000
vt 0.000000 0.000000
vt 0.000000 1.000000
vt 0.000000 0.000000
vt 0.750000 0.125000
vt 0.750000 0.250000
vt 0.750000 0.062500
vt 0.812500 0.187500
vt 0.000000 0.000000
vt 0.125000 0.125000
vt 0.812500 0.125000
vt 0.875000 0.125000
vt 0.875000 0.187500
vt 0.187500 0.125000
vt 0.125000 0.187500
vt 0.187500 0.125000
vt 0.125000 0.125000
vt 0.187500 0.187500
vt 0.000000 0.000000
vt 0.125000 0.125000
vt 0.187500 0.125000
vt 0.750000 0.125000
vt 0.750000 0.062500
vt 0.250000 0.250000
vt 0.125000 0.812500
vt 0.125000 0.125000
vt 0.812500 0.125000
vt 0.187500 0.125000
vt 0.875000 0.125000
vt 0.187500 0.875000
vt 0.812500 0.125000
vt 0.187500 0.812500
vt 0.187500 0.125000
vt 0.750000 0.062500
vt 0.250000 0.750000
vt 0.750000 0.125000
vt 0.750000 0.750000
vt 0.750000 0.062500
vt 0.750000 0.125000
vt 0.812500 0.125000
vt 0.812500 0.875000
vt 0.875000 0.125000
vt 0.812500 0.812500
vt 0.812500 0.125000
vt 0.875000 0.812500
vt 0.875000 0.125000
vt 0.812500 0.125000
vt 0.187500 0.250000
vt 0.187500 0.750000
vt 0.812500 0.125000
vt 0.000000 0.000000
vt 0.812500 0.187500
vt 0.187500 0.125000
vt 0.000000 0.000000
vt 0.187500 0.187500
vt 0.187500 0.125000
vt 0.000000 0.000000
vt 0.750000 0.187500
vt 0.000000 0.000000
vt 0.250000 0.187500
vt 0.812500 0.250000
vt 0.812500 0.750000
vt 0.250000 0.812500
vt 0.750000 0.812500
s 0
g Cube_Material
usemtl Material
f 2/2/1 6/12/1 5/11/1 1/1/1
f 9/22/1 8/18/1 10/24/1 11/27/1
f 11/27/1 13/33/1 14/35/1 9/22/1
f 23/55/2 26/59/2 24/57/2 16/41/2
f 20/47/3 38/89/3 34/77/3 18/43/3
f 18/44/4 34/78/4 27/60/4 15/37/4
f 3/5/5 30/67/5 45/105/5 13/32/5
f 46/111/6 14/36/6 6/13/6 33/75/6
f 10/25/4 8/19/4 36/83/4 40/95/4
f 9/21/6 37/86/6 36/84/6 8/20/6
f 11/27/1 12/29/1 3/6/1 13/33/1
f 9/22/1 14/35/1 4/8/1 7/15/1
f 31/70/2 32/73/2 43/103/2 44/104/2 37/87/2 35/80/2
f 29/66/2 28/63/2 32/73/2 33/76/2
f 28/63/2 30/68/2 42/100/2 41/98/2 50/117/2 49/116/2
f 37/87/2 51/118/2 52/119/2 41/98/2 40/96/2 36/85/2
f 28/64/2 32/74/2 46/109/2 48/114/2 47/112/2 45/106/2
f 37/87/2 44/104/2 38/90/2 51/118/2
f 39/92/2 52/119/2 51/118/2 38/90/2
f 41/98/2 52/119/2 39/92/2 50/117/2
f 39/92/2 27/61/2 49/116/2 50/117/2
f 45/107/2 49/116/2 27/61/2 47/113/2
f 43/103/2 46/110/2 48/115/2 34/79/2
f 38/90/2 44/104/2 43/103/2 34/79/2
f 34/79/2 48/115/2 47/113/2 27/61/2
f 7/16/4 35/81/4 37/88/4 9/23/4
f 11/28/4 41/99/4 42/101/4 12/30/4
f 21/51/5 39/93/5 38/91/5 20/48/5
f 15/38/6 27/62/6 39/94/6 21/52/6
f 13/34/3 45/108/3 29/65/3 2/3/3
f 7/17/6 4/9/6 31/71/6 35/82/6
f 12/31/3 42/102/3 30/69/3 3/7/3
f 6/14/5 2/4/5 29/66/5 33/76/5
f 4/10/5 14/36/5 46/111/5 31/72/5
f 11/28/3 10/26/3 40/97/3 41/99/3
g Cube_Material.002
usemtl Material.002
f 18/45/2 15/39/2 21/53/2 20/49/2
g Cube_Material.001
usemtl Material.001
f 26/59/7 23/56/7 17/42/7 25/58/7
f 15/40/8 20/50/8 19/46/8 22/54/8
l 3 1
l 5 4
l 5 14
l 18 23
l 21 26
l 13 1
